<svg xmlns="http://www.w3.org/2000/svg" width="30" height="14" viewBox="-6.985 0 30 14" enable-background="new -6.985 0 30 14"><path d="M.218 10.724H-1.26V5.988L-2.7 8.853h-1.365L-5.51 5.988v4.736h-1.476v-7.71h1.42l2.18 4.406 2.18-4.405H.218v7.71zm1.686-7.71H7.3v1.278H3.447v1.884H6.97v1.288H3.446v1.98h3.866v1.28H1.904v-7.71zm6.8 0h1.464l3.36 5.134V3.015h1.507v7.71h-1.463l-3.36-5.132v5.13H8.705V3.016zM16.67 7.95V3.015h1.53v5c0 1.003.65 1.585 1.643 1.585.99 0 1.63-.582 1.63-1.586v-5h1.542V7.95c0 1.74-1.178 2.93-3.172 2.93S16.67 9.688 16.67 7.948z" fill="#fff"/></svg>